<svg width="24" height="24" viewBox="0 0 24 24" fill="none" xmlns="http://www.w3.org/2000/svg">
<path d="M12 2L2 7V17L12 22L22 17V7L12 2ZM12 4.3L19.7 8.5L12 12.7L4.3 8.5L12 4.3ZM4 10.3V15.7L12 19.9L20 15.7V10.3L12 14.5L4 10.3Z" fill="#FFD700"/>
<path d="M12 14.5L4 10.3V15.7L12 19.9L20 15.7V10.3L12 14.5Z" fill="#DAA520"/>
<path d="M12 4.3L19.7 8.5L12 12.7L4.3 8.5L12 4.3Z" fill="#FFC107"/>
<path d="M12 12.7L19.7 8.5L22 7L12 2L2 7L4.3 8.5L12 12.7Z" fill="#FFECB3"/>
<path d="M12 14.5L20 15.7V10.3L12 14.5Z" fill="#B8860B"/>
<path d="M12 14.5L4 10.3V15.7L12 14.5Z" fill="#B8860B"/>
</svg>